<svg width="28" height="28" viewBox="0 0 28 28" fill="none" xmlns="http://www.w3.org/2000/svg">
<path d="M15.6667 9.33452V9.33334V4.66667C15.6667 4.4623 15.7304 4.31417 15.8562 4.18839C15.9819 4.06267 16.1293 3.99952 16.3322 4H16.3333H23.3333C23.5377 4 23.6858 4.06377 23.8116 4.18956C23.9373 4.31528 24.0005 4.46264 24 4.66549V4.66667V9.33334C24 9.53771 23.9362 9.68583 23.8104 9.81162C23.6847 9.93734 23.5374 10.0005 23.3345 10H23.3333H16.3333C16.129 10 15.9808 9.93623 15.8551 9.81045C15.7293 9.68473 15.6662 9.53737 15.6667 9.33452ZM4 14.0012V14V4.66667C4 4.4623 4.06377 4.31417 4.18956 4.18839C4.31528 4.06267 4.46264 3.99952 4.66549 4V4H4.66667H11.6667C11.871 4 12.0192 4.06377 12.145 4.18956C12.2707 4.31528 12.3338 4.46264 12.3333 4.66549V4.66667V14C12.3333 14.2044 12.2696 14.3525 12.1438 14.4783C12.0181 14.604 11.8707 14.6672 11.6678 14.6667H11.6667H4.66667C4.4623 14.6667 4.31417 14.6029 4.18839 14.4771C4.06267 14.3514 3.99952 14.204 4 14.0012ZM15.6667 23.3345V23.3333V14C15.6667 13.7956 15.7304 13.6475 15.8562 13.5217C15.9819 13.396 16.1293 13.3329 16.3322 13.3333H16.3333H23.3333C23.5377 13.3333 23.6858 13.3971 23.8116 13.5229C23.9373 13.6486 24.0005 13.796 24 13.9988V14V23.3333C24 23.5377 23.9362 23.6858 23.8104 23.8116C23.6847 23.9373 23.5374 24.0005 23.3345 24H23.3333H16.3333C16.129 24 15.9808 23.9362 15.8551 23.8104C15.7293 23.6847 15.6662 23.5374 15.6667 23.3345ZM4 23.3345V23.3333V18.6667C4 18.4623 4.06377 18.3142 4.18956 18.1884C4.31528 18.0627 4.46264 17.9995 4.66549 18H4.66667H11.6667C11.871 18 12.0192 18.0638 12.145 18.1896C12.2707 18.3153 12.3338 18.4626 12.3333 18.6655V18.6667V23.3333C12.3333 23.5377 12.2696 23.6858 12.1438 23.8116C12.0181 23.9373 11.8707 24.0005 11.6678 24H11.6667H4.66667C4.4623 24 4.31417 23.9362 4.18839 23.8104C4.06267 23.6847 3.99952 23.5374 4 23.3345Z" fill="#495057" stroke="#495057"/>
</svg>
